<svg xmlns="http://www.w3.org/2000/svg" viewBox="0 0 256 256"><defs><style>.a{fill:none;stroke:#a3c01c;stroke-miterlimit:10;stroke-width:9.25px;}.b{fill:#a3c01c;}</style></defs><path class="a" d="M22,71.35c9.08-6.67,15.42-6,26.46-7a131.1,131.1,0,0,1,19.12.08c5.58.33,11.07.65,16.44,2a109.89,109.89,0,0,1,12.82,4.15c5,1.88,10.61,4.59,14.46,9,3.66,4.22,2.44,11.56,1.63,17-.94,6.3-2,7.49-4.68,10.5-5.75,6.57-17,9.46-25.28,10.48A157.47,157.47,0,0,1,63.25,119a101,101,0,0,1-23.43-2.21c-8.21-1.91-18.09-3.3-21.86-12-2-4.66-1.8-10.27-1.8-15.38a34.5,34.5,0,0,1,2-13.11C19,74.38,20.35,72.17,22,71.35Z"/><path class="a" d="M236,71.35c-9.08-6.67-15.42-6-26.46-7a131.1,131.1,0,0,0-19.12.08c-5.58.33-11.07.65-16.44,2a110.51,110.51,0,0,0-12.82,4.15c-5,1.88-10.61,4.59-14.46,9-3.66,4.22-2.44,11.56-1.63,17,.94,6.3,2,7.49,4.68,10.5,5.75,6.57,17,9.46,25.28,10.48a157.47,157.47,0,0,0,19.71,1.4,101,101,0,0,0,23.43-2.21c8.21-1.91,18.1-3.3,21.86-12,2-4.66,1.8-10.27,1.8-15.38a34.5,34.5,0,0,0-2-13.11C239.05,74.38,237.65,72.17,236,71.35Z"/><line class="a" x1="113.69" y1="88.82" x2="144.5" y2="88.82"/><path class="b" d="M236.85,191c-4.19,4.06-18.52,4-31-1.06l-77.16-31.22a84,84,0,0,0,7-8.7,18.06,18.06,0,0,1,1-11.08c3-7.49,7-8.7,7-8.7l4.19-7.5c3.71,1.5.28,6.43,8.23,10.23,5.94,2.83,16.81,3.73,25.81,2.38,0,0,17.66,25.57,32.75,32.84,0,0,24.92,12,25,15.89C239.79,189,236.85,191,236.85,191Z"/><path class="b" d="M20.46,191c4.19,4.06,18.51,4,31-1.06l77.15-31.22a84.48,84.48,0,0,1-7-8.7,18,18,0,0,0-1-11.08c-3-7.49-7-8.7-7-8.7l-4.18-7.5c-3.71,1.5-.28,6.43-8.24,10.23-5.93,2.83-16.81,3.73-25.8,2.38,0,0-17.66,25.57-32.76,32.84,0,0-24.91,12-25,15.89C17.51,189,20.46,191,20.46,191Z"/></svg>